<svg version="1.0" xmlns="http://www.w3.org/2000/svg" viewBox="0 0 1020.96 1920" xml:space="preserve"><linearGradient id="a" gradientUnits="userSpaceOnUse" x1="1174.489" y1="432.887" x2="1003.014" y2="825.201" gradientTransform="translate(-258.083 259.709)"><stop offset="0" style="stop-color:#fff;stop-opacity:0"/><stop offset="1" style="stop-color:#eb5d9d"/></linearGradient><path fill="none" stroke="url(#a)" stroke-width="3" stroke-miterlimit="10" d="M855.3 667.46c-21.01-2.77-75.18 17.59-98.9 49.1S707.85 805.3 733.45 862c17.76 39.33 46.08 53.85 51.75 91.97 9.76 65.7-9.75 93.13 20.33 144.19 19.33 32.81 62.33 31.23 76.16 29.56"/><linearGradient id="b" gradientUnits="userSpaceOnUse" x1="1696.81" y1="365.968" x2="1525.335" y2="758.282" gradientTransform="rotate(27.613 1557.452 -2617.826)"><stop offset="0" style="stop-color:#fff;stop-opacity:0"/><stop offset="1" style="stop-color:#eb5d9d"/></linearGradient><path fill="none" stroke="url(#b)" stroke-width="3" stroke-miterlimit="10" d="M255.46 40.1c-17.33-12.19-74.77-19.26-110.39-2.33C109.45 54.7 60.92 93.9 57.32 156c-2.49 43.08 15.88 69.08 3.22 105.48-21.8 62.75-51.8 78-48.82 137.19 1.92 38.03 40.75 56.56 53.78 61.49"/><linearGradient id="c" gradientUnits="userSpaceOnUse" x1="1127.56" y1="574.367" x2="1127.56" y2="1608.706" gradientTransform="translate(-258.083 259.709)"><stop offset="0" style="stop-color:#ba539a"/><stop offset="1" style="stop-color:#2a2050"/></linearGradient><path fill="url(#c)" d="M1021.58 795.94c-62.31-19.28-121.11 26.75-148.53 126.49-35.83 130.3 42.62 286.03-.63 411.85-19.12 55.62-58.09 91.58-88.08 136.86-78.69 118.81-89.46 314.63-24.69 448.86h261.93V795.94z"/><linearGradient id="d" gradientUnits="userSpaceOnUse" x1="973.62" y1="-193.448" x2="228.445" y2="1511.419" gradientTransform="translate(-258.083 259.709)"><stop offset="0" style="stop-color:#941356"/><stop offset="1" style="stop-color:#291f50"/></linearGradient><path fill="url(#d)" d="M944.67 375.03c-32.74 23.54-71.79 23.02-108.08 14.31-36.33-8.71-71.64-24.97-108.23-31.15-32.89-5.54-66.5-2.75-98.72 8.18-29.04 9.87-50.11 30.62-65.3 66.62-45.43 107.8 64.24 248.28 18.92 356.18-19.68 46.88-62.73 62.66-101.55 65.3s-230.18-24.23-268.89 208.05c-31.08 186.56 98.57 323.19 119.22 353.59 36.75 54.16 77.98 103.79 105.97 167.4 28.02 63.61 40.82 146.81 16.01 212.96-20.62 55.01-65.07 83.91-108.05 96.77-43.15 12.91-90.19 15.46-123.46-19.77-1.77-1.88-2.48-2.56-3.48-3.87-3.4-4.46-5.5-9.78-6.19-15.35l-7.43-60.32c-1.61-13.09-6.12-25.65-13.15-36.81-104.81-166.2-166.22-381.88-185.3-602.11-19.75-227.53 3.89-459.81 53.55-678.31 13.75-60.5 29.83-121.1 57.06-171.94 13.59-25.36 29.58-47.61 47.02-67.66 9.95-11.44 28.6-1.81 24.9 12.89-17.35 68.94-18.25 141.75 17.07 177.25 1.16 1.17 2.51 2.16 4 2.86 53.83 25.32 118.71-5.63 149.95-72.07 8.12-17.32 14.16-36.58 23.91-52.16 29.15-46.51 79.99-45.66 124.21-44.92 17.11.32 34.74-.11 50.45-9.61 22.89-13.94 38.75-47.93 38.75-82.83s-15.79-68.79-38.56-83.09c-14.31-8.97-30.36-10.51-46.04-11.24-.17-.01-.34-.02-.51-.02-18.28-.99-18.08-28.08.22-28.81 124.85-4.97 253.46 45.73 375.22 96.46 43.24 18 93.17 45.35 104.19 106.53 8.97 49.93-14.94 103.09-47.68 126.69z"/><linearGradient id="e" gradientUnits="userSpaceOnUse" x1="1199.871" y1="-183.58" x2="495.459" y2="1428.028" gradientTransform="translate(-258.083 259.709)"><stop offset="0" style="stop-color:#fff"/><stop offset="1" style="stop-color:#eb5d9d"/></linearGradient><path fill="none" stroke="url(#e)" stroke-miterlimit="10" d="M456.36 1783.39c33.45-56.93 53.32-132.49 46.78-205.59-18.54-207.1-145.68-217.66-210.46-364.03-12.75-28.8-39.08-138.7.25-253.36 31.64-92.23 105.8-143.56 178.48-155.32 26.97-4.36 54.5-4.31 80.67-14.4s51.75-32.74 61.48-68.16c13.11-47.72-5.73-99.38-17.4-147.83-10-41.51-14.81-86.37-8.7-129.33 6.1-42.96 24.13-83.76 51.58-104.86 41.41-31.84 92.33-13.9 138.41.81s104.39 24.04 152.32-6.52c51.04-32.53 78.97-162.58-60.39-289.81"/><linearGradient id="f" gradientUnits="userSpaceOnUse" x1="1105.014" y1="1105.289" x2="972.32" y2="965.356" gradientTransform="translate(-258.083 259.709)"><stop offset="0" style="stop-color:#aa115c"/><stop offset="1" style="stop-color:#fff"/></linearGradient><path fill="url(#f)" d="M848.84 1188.21s13.29 97.74-29.58 172.45c-37 64.47-115.18 80.51-148.23 32.99s-14.59-83.55 54.33-121.82 42.92-137.74 83.52-148.73c18.62-5.04 36.25 23.6 39.96 65.11z"/><linearGradient id="g" gradientUnits="userSpaceOnUse" x1="981.454" y1="293.115" x2="891.066" y2="202.727" gradientTransform="translate(-258.083 259.709)"><stop offset="0" style="stop-color:#53113a"/><stop offset="1" style="stop-color:#fff"/></linearGradient><ellipse fill="url(#g)" cx="672.21" cy="501.66" rx="50.43" ry="70.5"/><linearGradient id="h" gradientUnits="userSpaceOnUse" x1="639.357" y1="482.426" x2="546.006" y2="221.593" gradientTransform="translate(-258.083 259.709)"><stop offset="0" style="stop-color:#582583"/><stop offset="1" style="stop-color:#fff"/></linearGradient><path fill="url(#h)" d="M429.59 519.11c17.1 24.98 29.27 86.44 18.97 134.95-14.3 67.35-54.37 95.35-111.02 90.07-56.65-5.28-133.59-46.19-117.46-133.63 11.58-62.78 131.76 53.33 114.34-98.98-3.58-31.27 63.54-38.6 95.17 7.59z"/><linearGradient id="i" gradientUnits="userSpaceOnUse" x1="688.588" y1="913.982" x2="598.2" y2="823.595" gradientTransform="translate(-258.083 259.709)"><stop offset="0" style="stop-color:#53113a"/><stop offset="1" style="stop-color:#816cae"/></linearGradient><ellipse fill="url(#i)" cx="379.34" cy="1122.53" rx="50.43" ry="70.5"/></svg>